<svg version="1.0" xmlns="http://www.w3.org/2000/svg"
 width="30.000000pt" height="30.000000pt" viewBox="0 0 30.000000 30.000000"
 preserveAspectRatio="xMidYMid meet">

<g transform="translate(0.000000,30.000000) scale(0.100000,-0.100000)"
fill="#000000" stroke="none">
<path d="M111 269 c-14 -5 -37 -7 -53 -4 -26 6 -28 5 -28 -28 0 -19 -3 -48 -6
-65 -6 -28 -4 -30 17 -25 18 5 21 3 16 -10 -4 -10 -2 -17 3 -17 6 0 10 9 10
21 0 11 5 17 10 14 6 -3 10 -2 10 3 0 5 36 26 80 46 44 21 80 42 80 48 0 5 5
6 10 3 6 -3 10 -2 10 3 0 6 -17 10 -37 9 -21 0 -51 2 -68 6 -16 4 -41 2 -54
-4z m44 -9 c-3 -5 0 -10 7 -10 9 0 9 -3 -2 -10 -13 -9 -13 -10 0 -10 13 0 13
-1 0 -10 -11 -7 -16 -4 -21 13 -7 25 -3 37 12 37 6 0 7 -4 4 -10z m-25 -36 c0
-14 -4 -23 -10 -19 -5 3 -10 0 -11 -7 -1 -7 -5 -2 -9 12 l-8 25 -1 -27 c-1
-16 -5 -28 -11 -28 -9 0 -11 6 -14 42 -1 10 26 23 57 27 4 1 7 -11 7 -25z"/>
<path d="M210 166 c-25 -13 -48 -22 -52 -19 -5 2 -8 -1 -8 -6 0 -18 -28 -12
-34 7 -3 11 -4 8 -3 -6 2 -19 -8 -29 -42 -48 l-45 -23 37 -16 c47 -20 45 -20
53 20 6 33 23 49 25 23 0 -7 4 -3 10 10 5 13 13 20 19 17 5 -3 10 -1 10 6 0 7
3 9 6 6 4 -3 18 3 32 13 34 27 44 25 36 -7 -10 -44 -18 -50 -25 -23 -7 24 -7
24 -8 3 -1 -26 -37 -67 -51 -58 -5 3 -11 1 -15 -5 -4 -6 -10 -8 -15 -5 -4 3
-10 -1 -13 -9 -3 -8 0 -17 8 -20 14 -5 111 28 133 46 15 13 13 110 -3 114 -5
2 -30 -8 -55 -20z"/>
<path d="M21 114 c0 -11 3 -14 6 -6 3 7 2 16 -1 19 -3 4 -6 -2 -5 -13z"/>
</g>
</svg>
