<svg width="99" height="25" viewBox="0 0 129 33" fill="none" xmlns="http://www.w3.org/2000/svg"><ellipse cx="126.737" cy="23.8" rx="2.263" ry="2.261" fill="#2D6CE4"></ellipse><path d="M113.326 6.33c1.88 0 3.564.414 5.053 1.243a8.821 8.821 0 013.479 3.476c.855 1.488 1.282 3.207 1.282 5.158 0 1.952-.427 3.683-1.282 5.195a8.821 8.821 0 01-3.479 3.476c-1.489.83-3.173 1.244-5.053 1.244-1.391 0-2.673-.268-3.845-.805a7.994 7.994 0 01-2.929-2.341v8.266c0 .971-.787 1.758-1.758 1.758a1.753 1.753 0 01-1.758-1.752v-15.04c0-4.279 2.346-6.623 2.346-6.623.782-1.073 2.141-1.878 3.337-2.414 1.196-.561 3.167-.842 4.607-.842zm-.293 16.719c1.245 0 2.356-.28 3.332-.842a6.197 6.197 0 002.344-2.414c.586-1.05.879-2.244.879-3.586 0-1.341-.293-2.524-.879-3.548-.562-1.05-1.343-1.854-2.344-2.415-.976-.561-2.087-.842-3.332-.842-1.221 0-2.331.293-3.332.879-.977.56-1.758 1.353-2.344 2.378-.561 1.024-.842 2.207-.842 3.548 0 1.342.281 2.537.842 3.586a6.197 6.197 0 002.344 2.414c1.001.561 2.111.842 3.332.842zM89.568 26.122c-1.929 0-3.662-.427-5.2-1.28a9.463 9.463 0 01-3.625-3.513c-.855-1.512-1.282-3.22-1.282-5.122 0-1.902.427-3.597 1.282-5.085a9.126 9.126 0 013.625-3.512c1.538-.854 3.271-1.28 5.2-1.28 1.928 0 3.65.426 5.163 1.28a8.88 8.88 0 013.589 3.512c.878 1.488 1.318 3.183 1.318 5.085 0 1.903-.44 3.61-1.318 5.122-.855 1.488-2.051 2.659-3.589 3.512-1.514.854-3.235 1.281-5.163 1.281zm0-3.073c1.245 0 2.356-.28 3.332-.842 1-.585 1.782-1.39 2.344-2.414.561-1.05.842-2.244.842-3.586 0-1.341-.28-2.524-.842-3.548-.562-1.05-1.343-1.854-2.344-2.415-.977-.561-2.087-.842-3.332-.842-1.245 0-2.368.281-3.37.842-.976.56-1.757 1.366-2.343 2.415-.561 1.024-.842 2.207-.842 3.548 0 1.342.28 2.537.842 3.586a6.549 6.549 0 002.344 2.414c1 .561 2.124.842 3.369.842zM73.73.292c1.012 0 1.832.82 1.832 1.831v21.948a1.83 1.83 0 11-3.662 0v-9.583H58.536v9.583a1.831 1.831 0 01-3.662 0V2.123a1.831 1.831 0 013.662 0v9.182H71.9V2.123c0-1.01.82-1.83 1.83-1.83zM41.153 6.33c1.88 0 3.565.414 5.054 1.243a8.826 8.826 0 013.478 3.476c.855 1.488 1.282 3.207 1.282 5.158 0 1.952-.427 3.683-1.282 5.195a8.826 8.826 0 01-3.478 3.476c-1.49.83-3.174 1.244-5.054 1.244-1.391 0-2.673-.268-3.845-.805a7.999 7.999 0 01-2.93-2.341v8.266a1.758 1.758 0 01-3.515.006v-15.04c0-4.279 2.347-6.623 2.347-6.623.78-1.073 2.14-1.878 3.336-2.414 1.197-.561 3.167-.842 4.607-.842zm-.293 16.719c1.245 0 2.356-.28 3.333-.842 1-.585 1.782-1.39 2.343-2.414.586-1.05.88-2.244.88-3.586 0-1.341-.294-2.524-.88-3.548-.561-1.05-1.343-1.854-2.343-2.415-.977-.561-2.088-.842-3.333-.842-1.22 0-2.331.293-3.332.879-.977.56-1.758 1.353-2.343 2.378-.562 1.024-.843 2.207-.843 3.548 0 1.342.281 2.537.843 3.586a6.192 6.192 0 002.343 2.414c1.001.561 2.112.842 3.332.842zM13.659 26.195c-2.588 0-4.92-.56-6.994-1.683-2.075-1.146-3.711-2.72-4.907-4.72C.586 17.793 0 15.562 0 13.098c0-2.463.586-4.695 1.758-6.695 1.196-2 2.832-3.56 4.907-4.682C8.74.573 11.07 0 13.659 0c2.563 0 4.882.573 6.957 1.72 2.075 1.121 3.699 2.682 4.87 4.682 1.172 1.976 1.758 4.208 1.758 6.696 0 2.487-.586 4.731-1.758 6.731-1.171 1.976-2.795 3.537-4.87 4.683-2.075 1.122-4.394 1.683-6.957 1.683zm0-3.256c1.88 0 3.564-.427 5.053-1.28a9.268 9.268 0 003.552-3.513c.879-1.512 1.318-3.195 1.318-5.049 0-1.853-.44-3.524-1.318-5.012a9.193 9.193 0 00-3.552-3.548c-1.49-.854-3.173-1.28-5.053-1.28s-3.589.426-5.127 1.28a9.455 9.455 0 00-3.588 3.548c-.855 1.488-1.282 3.159-1.282 5.012 0 1.854.427 3.537 1.282 5.05a9.536 9.536 0 003.588 3.512c1.538.853 3.247 1.28 5.127 1.28z" fill="#2D6CE4"></path></svg>